<svg xmlns="http://www.w3.org/2000/svg" width="46.706" height="37.972" viewBox="0 0 46.706 37.972"><defs><style>.a{fill:#fff;}</style></defs><g transform="translate(-0.041 464)"><path class="a" d="M44.356-463.881c-.356.274-.356.237-.356,9.279v8.778l.511-.465a11.336,11.336,0,0,1,6.177-3.029,12.531,12.531,0,0,1,4.261.256l.867.246,9.216.055c8.613.046,9.243.055,9.471.21a1.116,1.116,0,0,1,.538,1.022,1.116,1.116,0,0,1-.538,1.022c-.228.155-.766.164-7.354.21l-7.1.046.511.593a11.779,11.779,0,0,1,1.46,2.071l.255.484h5.849c5.548,0,5.867.009,6.232.173a1.222,1.222,0,0,1,0,2.208c-.365.164-.675.173-5.794.173h-5.42l.082.474c.036.265.064,1.159.055,1.989a7.978,7.978,0,0,1-.228,2.345l-.219.849H81.054l-.283-.411a6.5,6.5,0,0,1-.849-1.916c-.192-.63-.192-.776-.219-13.468l-.036-12.838-.237-.237L79.193-464H61.847C48.352-463.991,44.465-463.973,44.356-463.881Zm30.056,4.2a1.242,1.242,0,0,1,.429,1.679c-.365.611-.411.62-3.148.648-2.756.027-2.892,0-3.3-.611a1.222,1.222,0,0,1,.666-1.834,25.772,25.772,0,0,1,2.683-.064C73.9-459.848,74.193-459.83,74.412-459.684Zm-17.163.173A3.968,3.968,0,0,1,58.9-458a4.735,4.735,0,0,1,0,4.234,3.968,3.968,0,0,1-1.652,1.515,2.748,2.748,0,0,1-1.524.246,2.7,2.7,0,0,1-1.615-.292,3.708,3.708,0,0,1-2.08-3.577,3.743,3.743,0,0,1,1.615-3.349,3.09,3.09,0,0,1,2.172-.557A2.939,2.939,0,0,1,57.249-459.511Zm-5.986-.009c.164.182.173.365.173,2.856,0,3.075-.064,3.449-.675,4.06a2.683,2.683,0,0,1-3.2.237,2.437,2.437,0,0,1-.885-1.706c-.064-.776.073-.958.876-1.086.785-.119,1.022.036,1.131.73.073.447.091.474.319.447l.246-.027.046-2.655c.055-3.2,0-3.048,1.095-3.048C50.989-459.711,51.117-459.684,51.263-459.52Zm13.23.128a1.727,1.727,0,0,1,.83.757,2.04,2.04,0,0,1,.21,1.907l-.192.557.3.42a1.6,1.6,0,0,1,.328,1,2.389,2.389,0,0,1-1.369,2.436c-.447.2-.62.219-2.4.246-1.88.036-1.925.027-2.1-.164s-.182-.365-.21-3.595c-.027-3.358-.018-3.4.173-3.65l.192-.246,1.843.027,1.852.027Zm9.918,5.183a1.232,1.232,0,0,1,.4,1.715c-.392.593-.566.63-3.194.63a10.8,10.8,0,0,1-2.646-.128,1.238,1.238,0,0,1,.137-2.345c.164-.036,1.369-.064,2.673-.055C73.91-454.374,74.193-454.355,74.412-454.209Z" transform="translate(-39.948)"/><path class="a" d="M156.115-396.731a1.447,1.447,0,0,0-.858,1.113,2.534,2.534,0,0,0,.593,2.418,1.576,1.576,0,0,0,1.925-.155,1.8,1.8,0,0,0,.511-1.487c0-1.086-.383-1.77-1.1-1.971A1.252,1.252,0,0,0,156.115-396.731Z" transform="translate(-140.986 -60.982)"/><path class="a" d="M241-394.681v.319h.675c.785,0,.967-.055.967-.265,0-.292-.2-.374-.931-.374H241Z" transform="translate(-218.973 -62.704)"/><path class="a" d="M241-364.535v.465l.867-.037c.9-.027,1.04-.091,1.049-.456,0-.338-.246-.438-1.1-.438H241Z" transform="translate(-218.973 -89.967)"/><path class="a" d="M448.927-365.949l.027,9.061.237.6a5.628,5.628,0,0,0,1.1,1.861l.4.438.73-.1a3.065,3.065,0,0,0,3.02-2.454c.137-.474.164-1.314.192-8.495.027-8.778.046-8.458-.529-9.161a2.691,2.691,0,0,0-.748-.566c-.465-.237-.5-.237-2.464-.237h-2Z" transform="translate(-407.903 -80.879)"/><path class="a" d="M11.443-290.416a9.874,9.874,0,0,0-7.783,5.11,9.886,9.886,0,0,0-.246,8.924c.2.42.447.876.538,1.013l.182.256L2.182-273.1c-2.126,2.19-2.226,2.345-2.108,3.212a1.907,1.907,0,0,0,2.683,1.378,24.309,24.309,0,0,0,2.19-2.053L6.8-272.45l.52.319a10.268,10.268,0,0,0,2.527,1.058,12.372,12.372,0,0,0,3.942.182,10.036,10.036,0,0,0,8.066-7.272,13.609,13.609,0,0,0,.182-3.987,9.793,9.793,0,0,0-2.518-5.146A9.831,9.831,0,0,0,11.443-290.416Zm2.938,3.212a6.983,6.983,0,0,1,4.48,4.425,5.411,5.411,0,0,1,.319,1.807,6.283,6.283,0,0,1-.721,3.422,5.2,5.2,0,0,1-1.3,1.788,5.058,5.058,0,0,1-1.788,1.3,6.31,6.31,0,0,1-3.467.721,6.829,6.829,0,0,1-6.3-5.274,7.312,7.312,0,0,1,.137-3.686,6.973,6.973,0,0,1,4.936-4.617A8.264,8.264,0,0,1,14.381-287.2Z" transform="translate(0 -157.708)"/></g></svg>