<svg xmlns="http://www.w3.org/2000/svg" width="37.666" height="34.768" viewBox="0 0 37.666 34.768"><defs><style>.a{fill:#fff;}</style></defs><g transform="translate(-3.375 -4.5)"><path class="a" d="M17.382,29.607V14.161a3.864,3.864,0,0,1,3.866-3.866H39.085V8.366A3.851,3.851,0,0,0,35.255,4.5H7.359A3.913,3.913,0,0,0,3.375,8.3V35.465a3.913,3.913,0,0,0,3.984,3.8H35.246a3.845,3.845,0,0,0,3.83-3.866V33.474H21.239A3.862,3.862,0,0,1,17.382,29.607Z" transform="translate(0 0)"/><path class="a" d="M17.227,13.4V26.078a1.453,1.453,0,0,0,1.449,1.449H35.607a1.453,1.453,0,0,0,1.449-1.449V13.4a1.453,1.453,0,0,0-1.449-1.449H18.675A1.453,1.453,0,0,0,17.227,13.4Zm6.981,9.226a2.9,2.9,0,1,1,2.707-2.707A2.9,2.9,0,0,1,24.207,22.628Z" transform="translate(3.985 2.144)"/></g></svg>