<svg xmlns="http://www.w3.org/2000/svg" width="32.554" height="32.551" viewBox="0 0 32.554 32.551">
  <path id="Icon_ionic-ios-call" data-name="Icon ionic-ios-call" d="M36.1,29.991a27.343,27.343,0,0,0-5.712-3.822c-1.712-.822-2.339-.805-3.551.068-1.008.729-1.661,1.407-2.822,1.153s-3.449-1.983-5.669-4.195-3.949-4.508-4.195-5.669.432-1.814,1.153-2.822c.873-1.212.9-1.839.068-3.551A26.8,26.8,0,0,0,11.553,5.44c-1.246-1.246-1.525-.975-2.212-.729A12.586,12.586,0,0,0,7.316,5.788,6.11,6.11,0,0,0,4.883,8.355C4.4,9.4,3.841,11.338,6.688,16.406a44.923,44.923,0,0,0,7.9,10.534h0l.008.008.008.008h0a45.1,45.1,0,0,0,10.534,7.9c5.068,2.847,7.008,2.288,8.051,1.805a6.006,6.006,0,0,0,2.568-2.432A12.586,12.586,0,0,0,36.832,32.2C37.078,31.516,37.358,31.237,36.1,29.991Z" transform="translate(-4.49 -4.502)"/>
</svg>
