<svg xmlns="http://www.w3.org/2000/svg" width="22.162" height="22.162" viewBox="0 0 22.162 22.162"><defs><style>.a{fill:#8e8e8e;}</style></defs><g transform="translate(-0.08 511.918)"><path class="a" d="M2.739-511.665A3.405,3.405,0,0,0,.271-509.5c-.186.554-.2.814-.186,2.957A8.431,8.431,0,0,0,.2-504.2a3.375,3.375,0,0,0,2.4,2.338,10.841,10.841,0,0,0,2.468.087c2.355,0,2.4,0,3-.281a3.311,3.311,0,0,0,1.68-1.68c.277-.606.286-.714.273-3.148l-.013-2.187-.134-.381a3.385,3.385,0,0,0-1.728-1.94c-.671-.32-.624-.316-2.988-.329A16.778,16.778,0,0,0,2.739-511.665Z" transform="translate(0 -0.187)"/><path class="a" d="M284.745-511.874a3.94,3.94,0,0,0-.541.152,3.354,3.354,0,0,0-2.117,2.334,10.587,10.587,0,0,0-.087,2.433c0,2.381.009,2.451.325,3.109a3.346,3.346,0,0,0,2.174,1.8,11.3,11.3,0,0,0,2.459.082,10.864,10.864,0,0,0,2.472-.087,3.383,3.383,0,0,0,2.4-2.338,8.433,8.433,0,0,0,.117-2.338c.017-2.152,0-2.394-.191-2.957a3.186,3.186,0,0,0-.814-1.264,3.08,3.08,0,0,0-1.68-.9,14.546,14.546,0,0,0-2.316-.065C285.858-511.913,284.866-511.9,284.745-511.874Z" transform="translate(-269.714 0)"/><path class="a" d="M2.7-229.67A3.406,3.406,0,0,0,.2-227.3a8.887,8.887,0,0,0-.113,2.36,14.787,14.787,0,0,0,.056,2.425,3.342,3.342,0,0,0,2.646,2.676,14.288,14.288,0,0,0,2.425.056c2.312-.017,2.273-.013,2.94-.333a3.385,3.385,0,0,0,1.728-1.94l.134-.381.013-2.187c.013-2.494.009-2.555-.316-3.226a3.331,3.331,0,0,0-2.035-1.758c-.3-.1-.329-.1-2.511-.113A19.076,19.076,0,0,0,2.7-229.67Z" transform="translate(0 -269.976)"/><path class="a" d="M284.511-229.7a3.342,3.342,0,0,0-2.226,1.871c-.277.6-.286.706-.286,3.035a10.645,10.645,0,0,0,.087,2.438,3.355,3.355,0,0,0,2.221,2.368l.4.139,2.1.013a14.614,14.614,0,0,0,2.446-.056,3.076,3.076,0,0,0,1.7-.909,3.186,3.186,0,0,0,.814-1.264c.191-.563.208-.805.191-2.957a8.433,8.433,0,0,0-.117-2.338,3.43,3.43,0,0,0-2.156-2.269l-.381-.134-2.23-.009A11.424,11.424,0,0,0,284.511-229.7Z" transform="translate(-269.714 -269.928)"/></g></svg>