<svg xmlns="http://www.w3.org/2000/svg" width="18.123" height="22.667" viewBox="0 0 18.123 22.667"><defs><style>.a{fill:#fff;}</style></defs><g transform="translate(0)"><path class="a" d="M17.335,31.338c1.762,0,2.725-1.246,2.725-3H14.6C14.6,30.092,15.567,31.338,17.335,31.338Z" transform="translate(-8.285 -8.672)"/><path class="a" d="M24.654,20.716c-.872-1.15-2.589-1.824-2.589-6.974,0-5.286-2.334-7.41-4.51-7.92-.2-.051-.351-.119-.351-.334V5.324a1.382,1.382,0,1,0-2.765,0v.164c0,.21-.147.283-.351.334-2.181.516-4.51,2.634-4.51,7.92,0,5.15-1.717,5.818-2.589,6.974a1.125,1.125,0,0,0,.9,1.8H23.759A1.125,1.125,0,0,0,24.654,20.716Z" transform="translate(-6.761 -3.93)"/></g></svg>