<svg xmlns="http://www.w3.org/2000/svg" width="29.876" height="24.289" viewBox="0 0 29.876 24.289"><defs><style>.a{fill:#00a8ff;}</style></defs><g transform="translate(-0.041 464)"><path class="a" d="M44.228-463.924c-.228.175-.228.152-.228,5.936v5.615l.327-.3a7.251,7.251,0,0,1,3.951-1.938,8.017,8.017,0,0,1,2.726.163l.554.158,5.895.035c5.51.029,5.912.035,6.058.134a.714.714,0,0,1,.344.654.714.714,0,0,1-.344.654c-.146.1-.49.105-4.7.134l-4.541.029.327.379a7.535,7.535,0,0,1,.934,1.325l.163.309h3.741c3.549,0,3.753.006,3.986.111a.782.782,0,0,1,0,1.412c-.233.105-.432.111-3.706.111H56.245l.053.3c.023.169.041.741.035,1.272a5.1,5.1,0,0,1-.146,1.5l-.14.543H67.7l-.181-.263a4.156,4.156,0,0,1-.543-1.226c-.123-.4-.123-.5-.14-8.615l-.023-8.212-.152-.152L66.511-464h-11.1C46.784-463.994,44.3-463.982,44.228-463.924Zm19.226,2.685a.8.8,0,0,1,.274,1.074c-.233.391-.263.4-2.014.414s-1.85,0-2.113-.391a.782.782,0,0,1,.426-1.173,16.483,16.483,0,0,1,1.716-.041C63.126-461.344,63.313-461.333,63.453-461.239Zm-10.979.111a2.538,2.538,0,0,1,1.056.969,3.029,3.029,0,0,1,0,2.708,2.538,2.538,0,0,1-1.056.969,1.758,1.758,0,0,1-.975.158,1.725,1.725,0,0,1-1.033-.187,2.372,2.372,0,0,1-1.331-2.288,2.4,2.4,0,0,1,1.033-2.142,1.977,1.977,0,0,1,1.389-.356A1.88,1.88,0,0,1,52.475-461.128Zm-3.829-.006c.105.117.111.233.111,1.827,0,1.967-.041,2.206-.432,2.6a1.716,1.716,0,0,1-2.049.152,1.559,1.559,0,0,1-.566-1.091c-.041-.5.047-.613.56-.695s.654.023.724.467c.047.286.058.3.2.286l.158-.018.029-1.7c.035-2.049,0-1.949.7-1.949C48.471-461.257,48.552-461.239,48.646-461.134Zm8.463.082a1.1,1.1,0,0,1,.531.484,1.3,1.3,0,0,1,.134,1.22l-.123.356.193.268a1.021,1.021,0,0,1,.21.642,1.528,1.528,0,0,1-.875,1.558c-.286.128-.4.14-1.535.158-1.2.023-1.232.018-1.342-.105s-.117-.233-.134-2.3c-.018-2.148-.012-2.177.111-2.335l.123-.158,1.179.017,1.185.018Zm6.344,3.315a.788.788,0,0,1,.257,1.1c-.251.379-.362.4-2.043.4a6.91,6.91,0,0,1-1.693-.082.792.792,0,0,1,.088-1.5c.105-.023.875-.041,1.71-.035C63.132-457.842,63.313-457.831,63.453-457.737Z" transform="translate(-41.393)"/><path class="a" d="M155.779-396.79a.926.926,0,0,0-.549.712,1.621,1.621,0,0,0,.379,1.547,1.008,1.008,0,0,0,1.232-.1,1.15,1.15,0,0,0,.327-.951c0-.695-.245-1.132-.706-1.261A.8.8,0,0,0,155.779-396.79Z" transform="translate(-146.087 -63.188)"/><path class="a" d="M241-394.8v.2h.432c.5,0,.619-.035.619-.169,0-.187-.128-.239-.6-.239H241Z" transform="translate(-226.895 -64.973)"/><path class="a" d="M241-364.7v.3l.554-.023c.578-.017.665-.058.671-.292,0-.216-.158-.28-.706-.28H241Z" transform="translate(-226.895 -93.222)"/><path class="a" d="M448.918-369.21l.017,5.8.152.385a3.6,3.6,0,0,0,.706,1.191l.257.28.467-.064a1.96,1.96,0,0,0,1.932-1.57c.088-.3.105-.84.123-5.434.018-5.615.029-5.41-.338-5.86a1.721,1.721,0,0,0-.479-.362c-.3-.152-.321-.152-1.576-.152H448.9Z" transform="translate(-422.661 -83.805)"/><path class="a" d="M7.335-290.431a6.316,6.316,0,0,0-4.979,3.268,6.324,6.324,0,0,0-.158,5.708c.128.268.286.56.344.648l.117.163-1.249,1.29c-1.36,1.4-1.424,1.5-1.348,2.054a1.22,1.22,0,0,0,1.716.881,15.553,15.553,0,0,0,1.4-1.313l1.185-1.208.333.2a6.568,6.568,0,0,0,1.617.677,7.914,7.914,0,0,0,2.521.117,6.419,6.419,0,0,0,5.159-4.652,8.705,8.705,0,0,0,.117-2.551,6.264,6.264,0,0,0-1.611-3.292A6.288,6.288,0,0,0,7.335-290.431Zm1.879,2.054a4.467,4.467,0,0,1,2.866,2.831,3.461,3.461,0,0,1,.2,1.156,4.019,4.019,0,0,1-.461,2.189,3.329,3.329,0,0,1-.835,1.144,3.235,3.235,0,0,1-1.144.829,4.037,4.037,0,0,1-2.218.461,4.368,4.368,0,0,1-4.033-3.374,4.677,4.677,0,0,1,.088-2.358,4.46,4.46,0,0,1,3.158-2.953A5.286,5.286,0,0,1,9.214-288.376Z" transform="translate(0 -163.414)"/></g></svg>