<svg xmlns="http://www.w3.org/2000/svg" width="68.647" height="49.033" viewBox="0 0 68.647 49.033">
  <g id="_8ff40f3216d3f708b7cb2a84bb222ee0" data-name="8ff40f3216d3f708b7cb2a84bb222ee0" transform="translate(-10 -150)">
    <path id="Path_42" data-name="Path 42" d="M76.2,150H12.452A2.454,2.454,0,0,0,10,152.452v44.13a2.454,2.454,0,0,0,2.452,2.452H76.2a2.454,2.454,0,0,0,2.452-2.452v-44.13A2.454,2.454,0,0,0,76.2,150ZM57.1,172.576a2.453,2.453,0,0,0-3.579,3.355l17.057,18.2H18.224l19.361-20.454,5.576,3.005a2.445,2.445,0,0,0,2.326,0L73.743,161.46v28.874ZM14.9,161.46l18.212,9.807L14.9,190.5Zm58.84-6.556v.988l-29.42,15.845L14.9,155.891V154.9Z"/>
  </g>
</svg>
