<svg xmlns="http://www.w3.org/2000/svg" width="41.913" height="41.953" viewBox="0 0 41.913 41.953"><defs><style>.a{fill:#fff;}</style></defs><g transform="translate(-14.999 496.952)"><path class="a" d="M140.98-496.817a1.08,1.08,0,0,0-.392.331c-.07.1-.705,1.393-1.419,2.864a11.761,11.761,0,0,1-1.48,2.716c-.1.026-1.489.244-3.09.487-3.108.461-3.4.548-3.682,1.018a1.692,1.692,0,0,0-.078,1.288c.087.209,3.142,3.1,4.474,4.239l.174.148-.531,3.073c-.287,1.689-.531,3.195-.531,3.343a1.516,1.516,0,0,0,1.245,1.245,23.386,23.386,0,0,0,3.064-1.436c1.549-.792,2.855-1.436,2.916-1.436s1.314.644,2.786,1.436c2.594,1.393,2.69,1.436,3.186,1.436a1.231,1.231,0,0,0,1.375-1c.026-.148-.191-1.593-.5-3.351-.3-1.7-.531-3.134-.5-3.177s.992-1.01,2.167-2.133,2.194-2.167,2.263-2.307a1.643,1.643,0,0,0-.026-1.358c-.287-.479-.575-.566-3.691-1.036-1.6-.244-2.994-.453-3.09-.479a11.493,11.493,0,0,1-1.48-2.716c-.714-1.471-1.349-2.768-1.419-2.873A1.523,1.523,0,0,0,140.98-496.817Z" transform="translate(-105.673)"/><path class="a" d="M166.722-225.826a1.361,1.361,0,0,0-.548.453c-.174.279-.174.418-.174,8.522v8.235l.2.287a2.268,2.268,0,0,0,.435.47c.244.183.279.183,7.2.183s6.955,0,7.2-.183a2.564,2.564,0,0,0,.444-.47l.191-.287v-8.235c0-8.1,0-8.243-.174-8.522a1.361,1.361,0,0,0-.548-.453c-.348-.165-.644-.174-7.112-.174S167.071-225.991,166.722-225.826Z" transform="translate(-137.857 -247.366)"/><path class="a" d="M15.66-154.8c-.688.392-.662.165-.662,5.832,0,5.606-.017,5.406.592,5.876l.3.235,4.918.026,4.909.017-.07-.192c-.044-.113-.087-2.855-.1-6.1L25.523-155H16Z" transform="translate(0 -312.186)"/><path class="a" d="M374.035-135.777c-.026.061-.052,2.324-.07,5.031s-.061,5.023-.1,5.153l-.07.244h4.805c5.345,0,5.171.017,5.641-.592l.235-.3v-4.378c0-4.309,0-4.378-.183-4.622a2.041,2.041,0,0,0-.479-.418c-.287-.165-.479-.174-5.023-.2C375-135.881,374.07-135.864,374.035-135.777Z" transform="translate(-327.569 -329.651)"/></g></svg>