<svg xmlns="http://www.w3.org/2000/svg" width="22.807" height="22.293" viewBox="0 0 22.807 22.293"><defs><style>.a{fill:#8e8e8e;}</style></defs><g transform="translate(-1.047 511.7)"><path class="a" d="M123.468-511.669a2.506,2.506,0,0,0-1.865,1.646l-.1.3v8.1l.1.3a2.516,2.516,0,0,0,1.57,1.565l.3.1h8.1l.3-.1a2.516,2.516,0,0,0,1.565-1.57l.1-.3v-8.1l-.1-.3a2.537,2.537,0,0,0-1.557-1.565l-.264-.1-3.981-.009C125.44-511.7,123.566-511.687,123.468-511.669Zm7.094,3.547a.671.671,0,0,1,.246.827c-.036.067-.971,1.024-2.075,2.129l-2.013,2.008-.246.022a.7.7,0,0,1-.371-.049,18.655,18.655,0,0,1-1.892-1.923.661.661,0,0,1,.291-.823c.38-.219.595-.121,1.337.613l.586.581,1.65-1.659c.912-.912,1.718-1.7,1.789-1.744A.7.7,0,0,1,130.562-508.122Z" transform="translate(-115.066)"/><path class="a" d="M38.286-209.545a2.445,2.445,0,0,0-1.749,1.606,2.8,2.8,0,0,0,0,1.387,2.406,2.406,0,0,0,1.548,1.548,2.69,2.69,0,0,0,1.445-.022,2.356,2.356,0,0,0,1.489-1.525,2.8,2.8,0,0,0,0-1.387,2.3,2.3,0,0,0-2.129-1.633A3.056,3.056,0,0,0,38.286-209.545Z" transform="translate(-33.82 -289.052)"/><path class="a" d="M205.756-209.759a2.407,2.407,0,0,0-1.691,1.574,2.767,2.767,0,0,0,0,1.4,2.4,2.4,0,0,0,1.709,1.579,2.362,2.362,0,0,0,2.764-1.579,2.767,2.767,0,0,0,0-1.4A2.364,2.364,0,0,0,205.756-209.759Z" transform="translate(-193.852 -288.815)"/><path class="a" d="M373.334-209.789a2.516,2.516,0,0,0-1.53,1.118,2.057,2.057,0,0,0-.3,1.181,2.182,2.182,0,0,0,.671,1.655,2.182,2.182,0,0,0,1.655.671,2.193,2.193,0,0,0,1.319-.385,2.258,2.258,0,0,0,1.006-1.941,2.184,2.184,0,0,0-.564-1.548A2.462,2.462,0,0,0,373.334-209.789Z" transform="translate(-353.884 -288.807)"/><path class="a" d="M2.109-98.032a3.827,3.827,0,0,0-.912,1.61,3.661,3.661,0,0,0-.139,1.181c-.022.734-.018.8.072.971a.607.607,0,0,0,.273.277c.17.085.259.089,3,.089H7.217v-1.024a5.216,5.216,0,0,1,.519-2.737l.148-.3-.174-.17-.174-.17-.219.188a3.8,3.8,0,0,1-2.357.854,3.786,3.786,0,0,1-2.348-.85,1.976,1.976,0,0,0-.233-.179A2.274,2.274,0,0,0,2.109-98.032Z" transform="translate(0 -395.503)"/><path class="a" d="M168.7-97.633a4.322,4.322,0,0,0-.85,1.646,6.56,6.56,0,0,0-.121,1.373l-.027,1h7.9l-.027-1a6.379,6.379,0,0,0-.121-1.364,4.124,4.124,0,0,0-.541-1.248,4.736,4.736,0,0,0-.662-.774,2.141,2.141,0,0,0-.318.228,4.141,4.141,0,0,1-1.328.675,4.591,4.591,0,0,1-1.847.022,4.812,4.812,0,0,1-1.418-.725,1.084,1.084,0,0,0-.277-.2A2.127,2.127,0,0,0,168.7-97.633Z" transform="translate(-159.199 -395.79)"/><path class="a" d="M358.266-98.121l-.165.161.148.3a5.216,5.216,0,0,1,.519,2.737V-93.9h2.818c2.737,0,2.827,0,3-.089a.607.607,0,0,0,.273-.277c.089-.174.094-.237.072-.971a3.663,3.663,0,0,0-.139-1.181,3.952,3.952,0,0,0-.98-1.682l-.206-.2-.219.188a3.8,3.8,0,0,1-2.357.854,3.786,3.786,0,0,1-2.348-.85,1.636,1.636,0,0,0-.233-.179A1.189,1.189,0,0,0,358.266-98.121Z" transform="translate(-341.083 -395.503)"/></g></svg>