<svg xmlns="http://www.w3.org/2000/svg" width="43.907" height="42.919" viewBox="0 0 43.907 42.919"><defs><style>.a{fill:#fff;}</style></defs><g transform="translate(-1.047 511.7)"><path class="a" d="M125.289-511.64a4.825,4.825,0,0,0-3.591,3.169l-.2.577v15.585l.2.577a4.844,4.844,0,0,0,3.022,3.014l.568.2h15.585l.577-.2a4.844,4.844,0,0,0,3.014-3.022l.2-.568v-15.585l-.2-.577a4.884,4.884,0,0,0-3-3.014l-.508-.2L133.3-511.7C129.086-511.7,125.478-511.674,125.289-511.64Zm13.657,6.828a1.293,1.293,0,0,1,.474,1.593c-.069.129-1.869,1.972-4,4.1l-3.875,3.866-.474.043a1.346,1.346,0,0,1-.715-.095,35.913,35.913,0,0,1-3.642-3.7,1.273,1.273,0,0,1,.56-1.584c.732-.422,1.145-.232,2.575,1.18l1.128,1.119,3.177-3.195c1.757-1.757,3.307-3.272,3.444-3.358A1.339,1.339,0,0,1,138.945-504.811Z" transform="translate(-110.081 0)"/><path class="a" d="M39.985-209.517a4.708,4.708,0,0,0-3.367,3.091,5.388,5.388,0,0,0,0,2.669,4.631,4.631,0,0,0,2.979,2.979,5.179,5.179,0,0,0,2.781-.043,4.536,4.536,0,0,0,2.867-2.936,5.388,5.388,0,0,0,0-2.669,4.434,4.434,0,0,0-4.1-3.143A5.884,5.884,0,0,0,39.985-209.517Z" transform="translate(-32.355 -276.957)"/><path class="a" d="M207.4-209.7a4.633,4.633,0,0,0-3.255,3.031,5.328,5.328,0,0,0,0,2.7,4.614,4.614,0,0,0,3.289,3.04,4.547,4.547,0,0,0,5.321-3.04,5.327,5.327,0,0,0,0-2.7A4.552,4.552,0,0,0,207.4-209.7Z" transform="translate(-185.455 -276.731)"/><path class="a" d="M375.03-209.751a4.843,4.843,0,0,0-2.945,2.153,3.96,3.96,0,0,0-.586,2.273,4.2,4.2,0,0,0,1.292,3.186,4.2,4.2,0,0,0,3.186,1.292,4.221,4.221,0,0,0,2.54-.741,4.346,4.346,0,0,0,1.937-3.737,4.2,4.2,0,0,0-1.085-2.979A4.74,4.74,0,0,0,375.03-209.751Z" transform="translate(-338.554 -276.723)"/><path class="a" d="M3.092-97.783a7.367,7.367,0,0,0-1.757,3.1,7.049,7.049,0,0,0-.267,2.273c-.043,1.412-.034,1.533.138,1.869a1.169,1.169,0,0,0,.525.534c.327.164.5.172,5.769.172h5.425v-1.972a10.041,10.041,0,0,1,1-5.27l.284-.568-.336-.327-.336-.327-.422.362a7.313,7.313,0,0,1-4.538,1.645A7.29,7.29,0,0,1,4.056-97.93a3.8,3.8,0,0,0-.448-.344A4.377,4.377,0,0,0,3.092-97.783Z" transform="translate(0 -378.946)"/><path class="a" d="M169.62-97.294a8.321,8.321,0,0,0-1.636,3.169,12.631,12.631,0,0,0-.233,2.644l-.052,1.92h15.207l-.052-1.92a12.28,12.28,0,0,0-.233-2.626,7.94,7.94,0,0,0-1.042-2.4A9.118,9.118,0,0,0,180.306-98a4.123,4.123,0,0,0-.611.439,7.971,7.971,0,0,1-2.557,1.3,8.838,8.838,0,0,1-3.556.043,9.263,9.263,0,0,1-2.73-1.395,2.086,2.086,0,0,0-.534-.387A4.093,4.093,0,0,0,169.62-97.294Z" transform="translate(-152.303 -379.22)"/><path class="a" d="M358.419-97.956l-.319.31.284.568a10.042,10.042,0,0,1,1,5.27v1.972h5.425c5.27,0,5.442-.009,5.769-.172a1.169,1.169,0,0,0,.525-.534c.172-.336.181-.456.138-1.869a7.052,7.052,0,0,0-.267-2.273,7.608,7.608,0,0,0-1.886-3.238l-.4-.379-.422.362a7.313,7.313,0,0,1-4.538,1.645,7.29,7.29,0,0,1-4.521-1.636,3.146,3.146,0,0,0-.448-.344A2.292,2.292,0,0,0,358.419-97.956Z" transform="translate(-326.308 -378.946)"/></g></svg>