<svg xmlns="http://www.w3.org/2000/svg" width="64.286" height="45" viewBox="0 0 64.286 45"><defs><style>.a{fill:#cbcbcb;}</style></defs><path class="a" d="M54,21.8A9.654,9.654,0,0,0,45,8.679a9.594,9.594,0,0,0-5.354,1.627,16.073,16.073,0,0,0-30,8.016c0,.271.01.542.02.814a14.468,14.468,0,0,0,4.8,28.115H51.429A12.856,12.856,0,0,0,54,21.8ZM39.516,27.964H32.947v11.25a1.612,1.612,0,0,1-1.607,1.607H26.518a1.612,1.612,0,0,1-1.607-1.607V27.964H18.342a1.6,1.6,0,0,1-1.135-2.742L27.794,14.635a1.613,1.613,0,0,1,2.27,0L40.651,25.222a1.606,1.606,0,0,1-1.135,2.742Z" transform="translate(0 -2.25)"/></svg>