<svg xmlns="http://www.w3.org/2000/svg" width="25.143" height="22" viewBox="0 0 25.143 22"><defs><style>.a{fill:#8e8e8e;}</style></defs><path class="a" d="M22.648,6.964H3.929a.786.786,0,0,1,0-1.571H22.786a.785.785,0,0,0,.786-.786A2.357,2.357,0,0,0,21.214,2.25H3.143A3.143,3.143,0,0,0,0,5.393V21.107A3.143,3.143,0,0,0,3.143,24.25H22.648a2.431,2.431,0,0,0,2.495-2.357V9.321A2.431,2.431,0,0,0,22.648,6.964Zm-2.22,10.214A1.571,1.571,0,1,1,22,15.607,1.572,1.572,0,0,1,20.429,17.179Z" transform="translate(0 -2.25)"/></svg>